<?xml version="1.0" encoding="UTF-8" standalone="no"?>
<!-- Created with Inkscape (http://www.inkscape.org/) -->

<svg
   xmlns:dc="http://purl.org/dc/elements/1.1/"
   xmlns:cc="http://creativecommons.org/ns#"
   xmlns:rdf="http://www.w3.org/1999/02/22-rdf-syntax-ns#"
   xmlns:svg="http://www.w3.org/2000/svg"
   xmlns="http://www.w3.org/2000/svg"
   xmlns:sodipodi="http://sodipodi.sourceforge.net/DTD/sodipodi-0.dtd"
   xmlns:inkscape="http://www.inkscape.org/namespaces/inkscape"
   width="150"
   height="100"
   id="svg2"
   version="1.1"
   inkscape:version="0.48.4 r9939"
   sodipodi:docname="logo.svg"
   inkscape:export-filename="F:\Works\ICT\SBA 1\images\logo.png"
   inkscape:export-xdpi="90"
   inkscape:export-ydpi="90">
  <defs
     id="defs4" />
  <sodipodi:namedview
     id="base"
     pagecolor="#000000"
     bordercolor="#666666"
     borderopacity="1.0"
     inkscape:pageopacity="0"
     inkscape:pageshadow="2"
     inkscape:zoom="2.02"
     inkscape:cx="232.12871"
     inkscape:cy="84.884263"
     inkscape:document-units="px"
     inkscape:current-layer="layer1"
     showgrid="false"
     borderlayer="true"
     inkscape:window-width="1600"
     inkscape:window-height="838"
     inkscape:window-x="-8"
     inkscape:window-y="-8"
     inkscape:window-maximized="1" />
  <metadata
     id="metadata7">
    <rdf:RDF>
      <cc:Work
         rdf:about="">
        <dc:format>image/svg+xml</dc:format>
        <dc:type
           rdf:resource="http://purl.org/dc/dcmitype/StillImage" />
        <dc:title></dc:title>
      </cc:Work>
    </rdf:RDF>
  </metadata>
  <g
     inkscape:label="Layer 1"
     inkscape:groupmode="layer"
     id="layer1"
     transform="translate(0,-952.36218)">
    <text
       xml:space="preserve"
       style="font-size:64px;font-style:normal;font-variant:normal;font-weight:normal;font-stretch:normal;line-height:125%;letter-spacing:0px;word-spacing:0px;fill:#5599ff;fill-opacity:1;stroke:none;font-family:Trajan Pro;-inkscape-font-specification:Trajan Pro"
       x="3.6473544"
       y="1086.1962"
       id="text2985"
       sodipodi:linespacing="125%"
       transform="scale(1.083707,0.92275865)"
       inkscape:export-filename="F:\Works\ICT\SBA 1\images\logo.png"
       inkscape:export-xdpi="90"
       inkscape:export-ydpi="90"><tspan
         sodipodi:role="line"
         id="tspan2987"
         x="3.6473544"
         y="1086.1962">M</tspan></text>
    <text
       xml:space="preserve"
       style="font-size:40px;font-style:normal;font-variant:normal;font-weight:normal;font-stretch:normal;line-height:125%;letter-spacing:0px;word-spacing:0px;fill:#f2f2f2;fill-opacity:1;stroke:none;font-family:Trajan Pro;-inkscape-font-specification:Trajan Pro"
       x="74.610229"
       y="1000.7852"
       id="text2989"
       sodipodi:linespacing="125%"
       transform="scale(0.99847163,1.0015307)"
       inkscape:export-filename="F:\Works\ICT\SBA 1\images\logo.png"
       inkscape:export-xdpi="90"
       inkscape:export-ydpi="90"><tspan
         sodipodi:role="line"
         id="tspan2991"
         x="74.610229"
         y="1000.7852">u</tspan></text>
    <text
       xml:space="preserve"
       style="font-size:64px;font-style:normal;font-variant:normal;font-weight:normal;font-stretch:normal;line-height:125%;letter-spacing:0px;word-spacing:0px;fill:#5599ff;fill-opacity:1;stroke:none;font-family:Trajan Pro;-inkscape-font-specification:Trajan Pro"
       x="13.621794"
       y="1133.1661"
       id="text2985-1"
       sodipodi:linespacing="125%"
       transform="scale(1.083707,0.92275865)"
       inkscape:export-filename="F:\Works\ICT\SBA 1\images\logo.png"
       inkscape:export-xdpi="90"
       inkscape:export-ydpi="90"><tspan
         sodipodi:role="line"
         id="tspan2987-7"
         x="13.621794"
         y="1133.1661">V</tspan></text>
    <text
       xml:space="preserve"
       style="font-size:40px;font-style:normal;font-variant:normal;font-weight:normal;font-stretch:normal;line-height:125%;letter-spacing:0px;word-spacing:0px;fill:#f2f2f2;fill-opacity:1;stroke:none;font-family:Trajan Pro;-inkscape-font-specification:Trajan Pro"
       x="70.555336"
       y="1003.0549"
       id="text2989-4"
       sodipodi:linespacing="125%"
       transform="scale(0.96429792,1.0370239)"
       inkscape:export-filename="F:\Works\ICT\SBA 1\images\logo.png"
       inkscape:export-xdpi="90"
       inkscape:export-ydpi="90"><tspan
         sodipodi:role="line"
         id="tspan2991-0"
         x="70.555336"
         y="1003.0549">ote</tspan></text>
    <path
       style="fill:#dbe2e3;stroke:#000000;stroke-width:1.37834692px;stroke-linecap:butt;stroke-linejoin:miter;stroke-opacity:1"
       d="m 25.66649,1008.055 c 2.464892,0 4.929783,0 7.394674,0 0.246489,0 0.492978,0 0.739468,0 0.246489,0 0.739466,-0.2098 0.739466,0 0,0.2099 -0.985956,0 -0.739466,0 0.492977,0 0.985956,0 1.478935,0 1.734183,0 -0.34859,-0.1483 1.478934,0.6297 0.220467,0.094 0.565173,-0.1485 0.739467,0 0.174291,0.1483 0,0.4197 0,0.6296"
       id="path3059"
       inkscape:connector-curvature="0"
       inkscape:export-filename="F:\Works\ICT\SBA 1\images\logo.png"
       inkscape:export-xdpi="90"
       inkscape:export-ydpi="90" />
    <path
       style="fill:#dbe2e3;stroke:#000000;stroke-width:1.37834692px;stroke-linecap:butt;stroke-linejoin:miter;stroke-opacity:1"
       d="m 42.674241,1011.833 c 0,-0.8396 -0.985956,-2.5187 0,-2.5187 0.985957,0 -0.697176,3.1121 0,2.5187 0.888728,-0.7569 0.342015,-2.133 0.739466,-3.1483 0.769373,-1.9654 0.492979,0.2098 1.478935,-0.6297 0.174291,-0.1483 -0.17429,-0.4812 0,-0.6297 0.174291,-0.1483 0.519002,0.094 0.73947,0 0.311784,-0.1327 0.427679,-0.4969 0.739466,-0.6295 0.19119,-0.081 3.912668,0 4.436803,0 3.204359,0 6.408717,0 9.613077,0"
       id="path3061"
       inkscape:connector-curvature="0"
       inkscape:export-filename="F:\Works\ICT\SBA 1\images\logo.png"
       inkscape:export-xdpi="90"
       inkscape:export-ydpi="90" />
    <path
       style="fill:#dbe2e3;fill-opacity:1;fill-rule:nonzero;stroke:#000000;stroke-width:0.49504951;stroke-opacity:1"
       d="m 41.646129,1036.9166 c -0.276534,-0.6807 -3.096109,-7.1144 -6.265722,-14.2972 -3.169612,-7.1827 -5.6583,-13.1641 -5.530415,-13.292 0.338257,-0.3383 3.340286,-0.2847 6.216937,0.1109 2.078587,0.2859 2.497427,0.2141 2.497427,-0.4281 0,-1.2802 -1.705176,-1.7965 -5.933309,-1.7965 l -4.018202,0 -0.742031,-1.776 c -0.896066,-2.1446 -0.307505,-3.1745 1.814051,-3.1745 1.685658,0 2.48639,-0.9675 0.864153,-1.0441 -0.628692,-0.03 -3.605876,-0.01 -6.615965,0.043 -4.514141,0.08 -5.589072,-0.043 -6.136116,-0.702 -0.557238,-0.67142 -0.451663,-2.95286 0.66062,-14.2758 0.728117,-7.41217 1.450962,-14.10995 1.606322,-14.88395 0.250746,-1.24921 0.823805,-0.4152 5.102287,7.42574 4.709051,8.63003 12.076289,21.21411 13.576052,23.18941 0.69331,0.9132 0.81499,0.9279 1.565869,0.1886 0.447779,-0.4409 4.793955,-8.00764 9.658168,-16.81502 4.864213,-8.80739 8.944832,-15.68679 9.068043,-15.28754 0.224896,0.72873 3.309439,29.34833 3.298351,30.60336 -0.0045,0.5148 -0.892734,0.6425 -3.84255,0.5525 -2.110149,-0.064 -4.239633,-0.087 -4.732187,-0.051 -1.429156,0.1059 -0.428899,1.0565 1.111678,1.0565 1.69892,0 2.700816,1.0836 2.266663,2.4515 -0.298308,0.9398 -0.714523,1.0138 -5.704754,1.0138 -3.05464,0 -5.515305,0.2141 -5.688925,0.4951 -0.168276,0.2722 -0.758339,0.495 -1.311249,0.495 -1.569242,0 -2.861507,1.9435 -2.880202,4.3317 -0.01715,2.1909 0.423786,2.5831 1.591513,1.4154 0.736863,-0.7369 11.681974,-4.0083 12.079716,-3.6105 0.261052,0.261 -5.486014,13.3804 -10.123941,23.1109 -2.722971,5.7129 -2.988108,6.0931 -3.452282,4.9505 z"
       id="path3067"
       inkscape:connector-curvature="0" />
  </g>
</svg>
